<svg width="201" height="60" viewBox="0 0 201 60" fill="none" xmlns="http://www.w3.org/2000/svg">
<g filter="url(#filter0_dd)">
<rect x="4" y="2" width="193" height="52" rx="6" fill="#2490EF"/>
<path d="M28 22.2891H32.8786V35.5H36.2088V22.2891H41.0874V19.5H28V22.2891Z" fill="white"/>
<path d="M41.6982 35.5H45.0129V28.7109C45.0129 27.2344 46.0866 26.2188 47.5494 26.2188C48.0085 26.2188 48.6388 26.2969 48.95 26.3984V23.4453C48.6543 23.375 48.2419 23.3281 47.9074 23.3281C46.5691 23.3281 45.472 24.1094 45.0362 25.5938H44.9117V23.5H41.6982V35.5Z" fill="white"/>
<path d="M52.8331 40C55.2996 40 56.6068 38.7344 57.2837 36.7969L61.9289 23.5156L58.4197 23.5L55.9221 32.3125H55.7976L53.3233 23.5H49.8374L54.1247 35.8437L53.9302 36.3516C53.4944 37.4766 52.6619 37.5312 51.4947 37.1719L50.7478 39.6562C51.2224 39.8594 51.9927 40 52.8331 40Z" fill="white"/>
<path d="M73.6142 35.7344C77.2401 35.7344 79.4966 33.2422 79.4966 29.5469C79.4966 25.8281 77.2401 23.3438 73.6142 23.3438C69.9883 23.3438 67.7319 25.8281 67.7319 29.5469C67.7319 33.2422 69.9883 35.7344 73.6142 35.7344ZM73.6298 33.1562C71.9569 33.1562 71.101 31.6171 71.101 29.5233C71.101 27.4296 71.9569 25.8827 73.6298 25.8827C75.2715 25.8827 76.1274 27.4296 76.1274 29.5233C76.1274 31.6171 75.2715 33.1562 73.6298 33.1562Z" fill="white"/>
<path d="M84.7253 28.5625C84.7331 27.0156 85.6512 26.1094 86.9895 26.1094C88.3201 26.1094 89.1215 26.9844 89.1137 28.4531V35.5H92.4284V27.8594C92.4284 25.0625 90.7945 23.3438 88.3046 23.3438C86.5306 23.3438 85.2466 24.2187 84.7097 25.6172H84.5697V23.5H81.4106V35.5H84.7253V28.5625Z" fill="white"/>
<path fill-rule="evenodd" clip-rule="evenodd" d="M102.429 19.5H113.429V22.3141H102.429V19.5ZM102.429 35.5V26.6794H112.699V29.4982H105.94V35.5H102.429Z" fill="white"/>
<path d="M131.584 24.9625C131.09 21.5057 128.345 19.5 124.785 19.5C120.589 19.5 117.429 22.463 117.429 27.4924C117.429 32.5142 120.55 35.4848 124.785 35.4848C128.604 35.4848 131.137 33.0916 131.584 30.1211L128.651 30.1059C128.282 31.9293 126.745 32.9549 124.824 32.9549C122.22 32.9549 120.354 31.0632 120.354 27.4924C120.354 23.9824 122.204 22.0299 124.832 22.0299C126.784 22.0299 128.314 23.1011 128.651 24.9625H131.584Z" fill="white"/>
<path d="M136.409 19.7124H133.571V35.2718H136.409V19.7124Z" fill="white"/>
<path d="M144.031 35.5001C147.56 35.5001 149.803 33.0917 149.803 29.483C149.803 25.8667 147.56 23.4507 144.031 23.4507C140.502 23.4507 138.259 25.8667 138.259 29.483C138.259 33.0917 140.502 35.5001 144.031 35.5001ZM144.047 33.2969C142.094 33.2969 141.137 31.6103 141.137 29.4754C141.137 27.3406 142.094 25.6312 144.047 25.6312C145.968 25.6312 146.925 27.3406 146.925 29.4754C146.925 31.6103 145.968 33.2969 144.047 33.2969Z" fill="white"/>
<path d="M159.338 30.3641C159.338 32.1419 158.028 33.0232 156.773 33.0232C155.409 33.0232 154.499 32.0887 154.499 30.6072V23.6025H151.66V31.0327C151.66 33.8361 153.307 35.4239 155.675 35.4239C157.479 35.4239 158.749 34.5046 159.298 33.1979H159.424V35.272H162.176V23.6025H159.338V30.3641Z" fill="white"/>
<path d="M169.014 35.4769C171.084 35.4769 172.017 34.2841 172.464 33.4332H172.637V35.2718H175.429V19.7124H172.582V25.532H172.464C172.033 24.6887 171.147 23.4503 169.022 23.4503C166.238 23.4503 164.05 25.5624 164.05 29.4522C164.05 33.2965 166.175 35.4769 169.014 35.4769ZM169.806 33.2205C167.931 33.2205 166.943 31.6251 166.943 29.437C166.943 27.2642 167.916 25.7067 169.806 25.7067C171.633 25.7067 172.637 27.173 172.637 29.437C172.637 31.701 171.617 33.2205 169.806 33.2205Z" fill="white"/>
</g>
<defs>
<filter id="filter0_dd" x="0" y="0" width="201" height="60" filterUnits="userSpaceOnUse" color-interpolation-filters="sRGB">
<feFlood flood-opacity="0" result="BackgroundImageFix"/>
<feColorMatrix in="SourceAlpha" type="matrix" values="0 0 0 0 0 0 0 0 0 0 0 0 0 0 0 0 0 0 127 0" result="hardAlpha"/>
<feOffset/>
<feGaussianBlur stdDeviation="0.25"/>
<feColorMatrix type="matrix" values="0 0 0 0 0 0 0 0 0 0 0 0 0 0 0 0 0 0 0.5 0"/>
<feBlend mode="normal" in2="BackgroundImageFix" result="effect1_dropShadow"/>
<feColorMatrix in="SourceAlpha" type="matrix" values="0 0 0 0 0 0 0 0 0 0 0 0 0 0 0 0 0 0 127 0" result="hardAlpha"/>
<feOffset dy="2"/>
<feGaussianBlur stdDeviation="2"/>
<feColorMatrix type="matrix" values="0 0 0 0 0 0 0 0 0 0 0 0 0 0 0 0 0 0 0.13 0"/>
<feBlend mode="normal" in2="effect1_dropShadow" result="effect2_dropShadow"/>
<feBlend mode="normal" in="SourceGraphic" in2="effect2_dropShadow" result="shape"/>
</filter>
</defs>
</svg>
