<?xml version="1.0" encoding="UTF-8" standalone="no"?>
<!-- Created with Inkscape (http://www.inkscape.org/) -->

<svg
   xmlns:dc="http://purl.org/dc/elements/1.1/"
   xmlns:cc="http://creativecommons.org/ns#"
   xmlns:rdf="http://www.w3.org/1999/02/22-rdf-syntax-ns#"
   xmlns:svg="http://www.w3.org/2000/svg"
   xmlns="http://www.w3.org/2000/svg"
   xmlns:sodipodi="http://sodipodi.sourceforge.net/DTD/sodipodi-0.dtd"
   xmlns:inkscape="http://www.inkscape.org/namespaces/inkscape"
   id="svg2"
   version="1.1"
   inkscape:version="0.48.2 r9819"
   sodipodi:docname="splash-mono.svg"
   inkscape:export-filename="/Users/anandpdoshi/Dropbox/erpnext/logo 2013/erpnext-logo-2013 other colors 3.png"
   inkscape:export-xdpi="167.56363"
   inkscape:export-ydpi="167.56363"
   viewBox="0 0 680 820"
   preserveAspectRatio="xMidyMid meet"
   width="100%"
   height="100%">
  <defs
     id="defs4" />
  <sodipodi:namedview
     id="base"
     pagecolor="#ffffff"
     bordercolor="#666666"
     borderopacity="1.0"
     inkscape:pageopacity="0.0"
     inkscape:pageshadow="2"
     inkscape:zoom="0.53740115"
     inkscape:cx="417.75453"
     inkscape:cy="501.17067"
     inkscape:document-units="px"
     inkscape:current-layer="layer4"
     showgrid="false"
     inkscape:snap-bbox="false"
     showguides="true"
     inkscape:guide-bbox="true"
     inkscape:snap-global="true"
     inkscape:bbox-paths="false"
     inkscape:bbox-nodes="false"
     inkscape:snap-page="false"
     inkscape:snap-grids="true"
     inkscape:window-width="721"
     inkscape:window-height="690"
     inkscape:window-x="293"
     inkscape:window-y="0"
     inkscape:window-maximized="0">
    <inkscape:grid
       type="xygrid"
       id="grid3836" />
  </sodipodi:namedview>
  <metadata
     id="metadata7">
    <rdf:RDF>
      <cc:Work
         rdf:about="">
        <dc:format>image/svg+xml</dc:format>
        <dc:type
           rdf:resource="http://purl.org/dc/dcmitype/StillImage" />
        <dc:title />
      </cc:Work>
    </rdf:RDF>
  </metadata>
  <g
     inkscape:label="Layer 1"
     inkscape:groupmode="layer"
     id="layer1"
     style="display:inline">
    <rect
       style="opacity:0.90000000000000002;fill:#bdc3c7;fill-opacity:1"
       id="rect3800"
       width="150"
       height="150"
       x="60.000008"
       y="-472.36218"
       rx="20"
       ry="20"
       transform="scale(1,-1)" />
  </g>
  <g
     inkscape:groupmode="layer"
     id="layer2"
     inkscape:label="Layer 2">
    <path
       transform="scale(1,-1)"
       style="display:inline;opacity:0.90000000000000002;fill:#bdc3c7;fill-opacity:1"
       d="m 180,-372.36218 110,0 20,0 0,20 0,110 c 0,11.08 -8.92,20 -20,20 l -110,0 c -11.08,0 -20,-8.92 -20,-20 l 0,-110 c 0,-11.08 8.92,-20 20,-20 z"
       id="rect3051"
       inkscape:connector-curvature="0"
       sodipodi:nodetypes="scccssssss" />
  </g>
  <g
     inkscape:groupmode="layer"
     id="layer3"
     inkscape:label="Layer 3">
    <rect
       style="display:inline;opacity:0.90000000000000002;fill:#bdc3c7;fill-opacity:0.94117647"
       id="rect3840"
       width="150"
       height="150"
       x="260"
       y="-272.36218"
       rx="20"
       ry="20"
       transform="scale(1,-1)" />
  </g>
  <g
     inkscape:groupmode="layer"
     id="layer4"
     inkscape:label="Layer 4">
    <path
       sodipodi:nodetypes="scccssssss"
       inkscape:connector-curvature="0"
       id="path3054"
       d="m 490,372.36218 -110,0 -20,0 0,-20 0,-110 c 0,-11.08 8.92,-20 20,-20 l 110,0 c 11.08,0 20,8.92 20,20 l 0,110 c 0,11.08 -8.92,20 -20,20 z"
       style="display:inline;opacity:0.90000000000000002;fill:#bdc3c7;fill-opacity:1" />
  </g>
  <g
     inkscape:groupmode="layer"
     id="layer5"
     inkscape:label="Layer 5">
    <rect
       style="display:inline;opacity:0.90000000000000002;fill:#bdc3c7;fill-opacity:0.94117647"
       id="rect3844"
       width="150"
       height="150"
       x="460"
       y="-472.36218"
       rx="20"
       ry="20"
       transform="scale(1,-1)" />
  </g>
  <g
     inkscape:groupmode="layer"
     id="layer6"
     inkscape:label="Layer 6">
    <path
       style="display:inline;opacity:0.90000000000000002;fill:#bdc3c7;fill-opacity:0.94117647"
       d="m 490,422.36218 -110,0 -20,0 0,20 0,110 c 0,11.08 8.92,20 20,20 l 110,0 c 11.08,0 20,-8.92 20,-20 l 0,-110 c 0,-11.08 -8.92,-20 -20,-20 z"
       id="path3058"
       inkscape:connector-curvature="0"
       sodipodi:nodetypes="scccssssss" />
  </g>
  <g
     inkscape:groupmode="layer"
     id="layer7"
     inkscape:label="Layer 7">
    <rect
       style="display:inline;opacity:0.90000000000000002;fill:#bdc3c7;fill-opacity:1"
       id="rect3848"
       width="150"
       height="150"
       x="260"
       y="-672.36218"
       rx="20"
       ry="20"
       transform="scale(1,-1)" />
  </g>
  <g
     inkscape:groupmode="layer"
     id="layer8"
     inkscape:label="Layer 8">
    <path
       sodipodi:nodetypes="scccssssss"
       inkscape:connector-curvature="0"
       id="path3056"
       d="m 180,422.36218 110,0 20,0 0,20 0,110 c 0,11.08 -8.92,20 -20,20 l -110,0 c -11.08,0 -20,-8.92 -20,-20 l 0,-110 c 0,-11.08 8.92,-20 20,-20 z"
       style="display:inline;opacity:0.90000000000000002;fill:#bdc3c7;fill-opacity:1" />
  </g>
</svg>
