<?xml version="1.0" standalone="no"?>
<!DOCTYPE svg PUBLIC "-//W3C//DTD SVG 1.1//EN" "http://www.w3.org/Graphics/SVG/1.1/DTD/svg11.dtd">
<svg width="100%" height="100%" viewBox="0 0 260 260" version="1.1" xmlns="http://www.w3.org/2000/svg" xmlns:xlink="http://www.w3.org/1999/xlink" xml:space="preserve" style="fill-rule:evenodd;clip-rule:evenodd;stroke-linejoin:round;stroke-miterlimit:1.41421;">
    <g>
        <g>
            <path d="M65.838,51.703L111.685,97.55" style="fill:rgb(255,120,61);fill-rule:nonzero;"/>
            <path d="M142.07,214.331C140.972,214.331 139.892,213.904 139.083,213.099L63.699,138.15C62.899,137.355 62.45,136.273 62.45,135.145L62.45,51.703C62.45,49.364 64.346,47.468 66.683,47.468C69.023,47.468 70.919,49.364 70.919,51.703L70.919,133.385L137.833,199.913L137.833,149.073C137.833,146.735 139.729,144.839 142.067,144.839C144.407,144.839 146.303,146.735 146.303,149.073L146.303,210.095C146.303,211.806 145.274,213.349 143.694,214.006C143.17,214.225 142.617,214.331 142.07,214.331Z" style="fill:rgb(141,153,166);fill-rule:nonzero;"/>
            <path d="M66.684,93.206L31.109,93.206C29.423,93.206 27.897,92.208 27.225,90.662C26.552,89.115 26.862,87.317 28.01,86.085L53.506,58.723L62.738,48.816C64.333,47.105 67.013,47.009 68.724,48.604C70.435,50.199 70.529,52.878 68.935,54.59L40.844,84.736L66.684,84.736C69.024,84.736 70.92,86.632 70.92,88.972C70.92,91.311 69.023,93.206 66.684,93.206Z" style="fill:rgb(141,153,166);fill-rule:nonzero;"/>
            <path d="M111.685,101.784C110.588,101.784 109.492,101.362 108.663,100.516L63.663,54.669C62.024,52.999 62.05,50.317 63.719,48.68C65.389,47.041 68.07,47.067 69.708,48.736L114.708,94.584C116.347,96.253 116.321,98.934 114.652,100.572C113.826,101.381 112.756,101.784 111.685,101.784Z" style="fill:rgb(141,153,166);fill-rule:nonzero;"/>
            <path d="M108.015,180.274C106.802,180.274 105.599,179.756 104.761,178.752C103.262,176.956 103.504,174.285 105.299,172.787L231.176,67.796L153.873,67.796L69.229,138.397C67.433,139.895 64.762,139.655 63.263,137.857C61.765,136.062 62.007,133.39 63.803,131.892L149.626,60.309C150.388,59.675 151.347,59.327 152.338,59.327L242.863,59.327C244.645,59.327 246.238,60.444 246.844,62.12C247.451,63.796 246.944,65.673 245.574,66.814L110.726,179.292C109.934,179.953 108.971,180.274 108.015,180.274Z" style="fill:rgb(141,153,166);fill-rule:nonzero;"/>
        </g>
    </g>
</svg>
