<?xml version="1.0" encoding="utf-8"?>
<!-- Generator: Adobe Illustrator 25.4.1, SVG Export Plug-In . SVG Version: 6.00 Build 0)  -->
<svg version="1.1" id="Layer_1" xmlns="http://www.w3.org/2000/svg" xmlns:xlink="http://www.w3.org/1999/xlink" x="0px" y="0px"
	 viewBox="0 0 514.8 514.8" style="enable-background:new 0 0 514.8 514.8;" xml:space="preserve">
<style type="text/css">
	.st0{fill:#0060FF;}
	.st1{fill:#FFFFFF;}
</style>
<path class="st0" d="M489.8,514.8H25c-13.8,0-25-11.2-25-25V25C0,11.2,11.2,0,25,0h464.8c13.8,0,25,11.2,25,25v464.8
	C514.8,503.6,503.6,514.8,489.8,514.8z"/>
<path class="st1" d="M414.5,410.5H99.3c-3,0-4.9-3.2-3.5-5.9l90.8-170.6c1.9-3.6,5.6-5.8,9.7-5.8h80.5c2.5,0,4-2.7,2.8-4.8
	l-13.1-22.9c-2-3.4-5.6-5.5-9.5-5.5h-46.3c-1.5,0-2.5-1.6-1.8-2.9l47.3-88.7c0.8-1.4,2.8-1.4,3.5,0L344.9,267
	c0.7,1.3-0.3,2.9-1.8,2.9H227.2c-4,0-7.7,2.2-9.6,5.7l-50.7,91.6c-1.1,2,0.3,4.5,2.6,4.5h223.1c4.1,0,7.9,2.3,9.8,5.9l14.8,28.5
	C418.2,408.1,416.7,410.5,414.5,410.5z"/>
<path class="st1" d="M327.2,239.3"/>
<path class="st1" d="M380.3,341.5H224c-2.3,0-3.7-2.4-2.6-4.4l15.5-29c1.9-3.6,5.6-5.8,9.7-5.8h109.9c4.1,0,7.9,2.3,9.8,5.9
	l15.8,30.4C382.8,339.9,381.8,341.5,380.3,341.5z"/>
<g>
</g>
<g>
</g>
<g>
</g>
<g>
</g>
<g>
</g>
<g>
</g>
</svg>
