<?xml version="1.0" encoding="utf-8"?>
<!-- Generator: Adobe Illustrator 26.5.0, SVG Export Plug-In . SVG Version: 6.00 Build 0)  -->
<svg version="1.1" id="Layer_1" xmlns="http://www.w3.org/2000/svg" xmlns:xlink="http://www.w3.org/1999/xlink" x="0px" y="0px"
	 viewBox="0 0 70 70" style="enable-background:new 0 0 70 70;" xml:space="preserve">
<style type="text/css">
	.st0{fill:#1A1A1A;}
	.st1{fill:#FFFFFF;}
</style>
<path class="st0" d="M27.2,2.8h15.5c13.5,0,24.4,10.9,24.4,24.4v15.5c0,13.5-10.9,24.4-24.4,24.4H27.2c-13.5,0-24.4-10.9-24.4-24.4
	V27.2C2.8,13.7,13.7,2.8,27.2,2.8z"/>
<g>
	<g>
		<g>
			<ellipse class="st1" cx="52" cy="18" rx="4" ry="4"/>
			<ellipse transform="matrix(0.2227 -0.9749 0.9749 0.2227 -3.5149 31.4935)" class="st1" cx="18" cy="18" rx="4" ry="4"/>
			<ellipse class="st1" cx="35" cy="52.1" rx="4" ry="4"/>
		</g>
		<path class="st1" d="M34.9,23.7c-1.6,2-3,4.2-4,6.6c-2.3-3.5-5.7-6.2-9.5-7.7c1.3-1,2.2-2.5,2.3-4.2c0.1-0.9-0.1-1.8-0.5-2.7
			C27.8,17.3,31.8,20.1,34.9,23.7C34.9,23.7,34.9,23.7,34.9,23.7z"/>
	</g>
	<path class="st1" d="M48.6,22.6c-7.3,3.2-12.4,10.6-12.4,18.8c0,1.8,0.2,3.5,0.7,5.2c-0.6-0.2-1.3-0.3-2-0.3c-2,0-3.8,1-4.8,2.5
		c-0.7-2.4-1-4.9-1-7.4c0-6.3,2.2-12.5,6.2-17.4c3-3.7,6.9-6.5,11.3-8.3c-0.3,0.7-0.4,1.4-0.4,2.2C46.2,19.9,47.2,21.6,48.6,22.6
		L48.6,22.6L48.6,22.6z"/>
</g>
</svg>
