<svg width="36" height="36" viewBox="0 0 36 36" fill="none" xmlns="http://www.w3.org/2000/svg">
	<path d="M5.45455 0H30.5454C33.5673 0 36 2.43272 36 5.45454V30.5455C36 33.5673 33.5673 36 30.5454 36H5.45455C2.43276 36 0 33.5673 0 30.5455V5.45454C0 2.43272 2.43276 0 5.45455 0Z" fill="#2996F1"/>
	<path d="M12.277 8.99994C12.1637 8.99994 12.0532 9.01145 11.9465 9.03318C11.8398 9.0549 11.7368 9.08691 11.6389 9.12821C11.5899 9.14885 11.5423 9.17189 11.4959 9.19703C11.4031 9.24729 11.3158 9.30622 11.2351 9.37281C10.8717 9.67247 10.6406 10.1264 10.6406 10.6363V10.736V25.2641V25.3636C10.6406 26.2701 11.3704 26.9999 12.277 26.9999H23.7215C24.6281 26.9999 25.3579 26.2701 25.3579 25.3636V25.2641C25.3579 24.3575 24.6281 23.6277 23.7215 23.6277H14.0131V19.5519H21.2316C22.1381 19.5519 22.868 18.8221 22.868 17.9156V17.8161C22.868 16.9095 22.1381 16.1797 21.2316 16.1797H14.0131V12.3724H23.7215C24.6281 12.3724 25.3579 11.6426 25.3579 10.736V10.6363C25.3579 9.72976 24.6281 8.99994 23.7215 8.99994H12.277Z" fill="white"/>
</svg>