<?xml version="1.0" encoding="UTF-8" standalone="no"?>
<!-- Created with Inkscape (http://www.inkscape.org/) -->

<svg
   xmlns:dc="http://purl.org/dc/elements/1.1/"
   xmlns:cc="http://creativecommons.org/ns#"
   xmlns:rdf="http://www.w3.org/1999/02/22-rdf-syntax-ns#"
   xmlns:svg="http://www.w3.org/2000/svg"
   xmlns="http://www.w3.org/2000/svg"
   xmlns:sodipodi="http://sodipodi.sourceforge.net/DTD/sodipodi-0.dtd"
   xmlns:inkscape="http://www.inkscape.org/namespaces/inkscape"
   version="1.1"
   id="svg3718"
   xml:space="preserve"
   width="162.12097"
   height="162.3004"
   viewBox="0 0 162.12098 162.3004"
   sodipodi:docname="hub_logo.svg"
   inkscape:version="0.92.2 5c3e80d, 2017-08-06"><metadata
     id="metadata3724"><rdf:RDF><cc:Work
         rdf:about=""><dc:format>image/svg+xml</dc:format><dc:type
           rdf:resource="http://purl.org/dc/dcmitype/StillImage" /><dc:title></dc:title></cc:Work></rdf:RDF></metadata><defs
     id="defs3722"><clipPath
       clipPathUnits="userSpaceOnUse"
       id="clipPath3734"><path
         d="M 0,600 H 1000 V 0 H 0 Z"
         id="path3732"
         inkscape:connector-curvature="0" /></clipPath></defs><sodipodi:namedview
     pagecolor="#ffffff"
     bordercolor="#666666"
     borderopacity="1"
     objecttolerance="10"
     gridtolerance="10"
     guidetolerance="10"
     inkscape:pageopacity="0"
     inkscape:pageshadow="2"
     inkscape:window-width="740"
     inkscape:window-height="449"
     id="namedview3720"
     showgrid="false"
     inkscape:zoom="1.1278353"
     inkscape:cx="108.86803"
     inkscape:cy="50.640564"
     inkscape:window-x="605"
     inkscape:window-y="98"
     inkscape:window-maximized="0"
     inkscape:current-layer="g3726"
     fit-margin-top="10"
     fit-margin-left="0"
     fit-margin-right="0"
     fit-margin-bottom="10" /><g
     id="g3726"
     inkscape:groupmode="layer"
     inkscape:label="hub logo"
     transform="matrix(1.3333333,0,0,-1.3333333,-579.98759,522.65266)"><g
       id="g3728"><g
         id="g3730"
         clip-path="url(#clipPath3734)"><g
           id="g3740"
           transform="translate(469.3467,296.2959)"><path
             d="m 0,0 c -16.597,0 -31.587,12.581 -32.298,13.186 l -2.058,1.751 1.131,2.452 c 0.44,0.956 11.012,23.476 30.001,27.662 l 1.527,0.336 C 10.532,48.083 22.675,40.327 25.37,28.098 28.065,15.871 20.307,3.728 8.081,1.033 L 6.551,0.698 C 4.36,0.214 2.167,0 0,0"
             style="fill:#6be273;fill-opacity:1;fill-rule:nonzero;stroke:none"
             id="path3742"
             inkscape:connector-curvature="0" /></g><g
           id="g3744"
           transform="translate(519.9316,324.9663)"><path
             d="m 0,0 c -8.052,0 -16.033,3.513 -21.457,10.266 -4.599,5.724 -6.689,12.896 -5.892,20.196 0.797,7.297 4.39,13.85 10.111,18.446 l 1.524,1.225 c 7.78,6.245 18.871,9.487 32.081,9.388 9.773,-0.076 17.263,-1.928 17.578,-2.006 l 2.621,-0.657 0.074,-2.699 C 36.675,52.862 37.313,22.21 18.708,7.269 L 17.184,6.044 C 12.118,1.977 6.044,0 0,0"
             style="fill:#49c44c;fill-opacity:1;fill-rule:nonzero;stroke:none"
             id="path3746"
             inkscape:connector-curvature="0" /></g><g
           id="g3748"
           transform="translate(533.21,367.6562)"><path
             d="m 0,0 c -5.312,-1.335 -13.328,-3.353 -20.459,-7.646 -8.907,-5.364 -13.925,-12.827 -14.923,-22.183 l -0.02,-0.188 v -14.901 c -3.873,3.824 -8.159,6.202 -12.809,7.101 -12.143,2.341 -23.14,-5.967 -29.049,-10.433 l 4.296,-5.686 c 5.024,3.797 14.373,10.864 23.402,9.122 5.207,-1.005 9.965,-4.887 14.16,-11.54 v -33.538 h 7.128 v 59.49 c 1.878,16.413 20.17,21.016 30.01,23.492 z"
             style="fill:#cef6d1;fill-opacity:1;fill-rule:nonzero;stroke:none"
             id="path3750"
             inkscape:connector-curvature="0" /></g></g></g></g></svg>