<svg
   viewBox="0 0 87.312496 91.397155"
   class="hub-icon"
   height="345.43808"
   width="330">
  <g
     transform="translate(121.51931,-138.66452)"
     id="layer1">
    <rect
       ry="13.229166"
       y="142.74918"
       x="-121.51931"
       height="87.3125"
       width="87.3125"
       id="rect828"
       style="opacity:1;vector-effect:none;fill:#89da29;fill-opacity:1;stroke:none;stroke-width:0.26458332px;stroke-linecap:butt;stroke-linejoin:miter;stroke-miterlimit:4;stroke-dasharray:none;stroke-dashoffset:0;stroke-opacity:1;paint-order:normal"
       rx="13.229166" />
    <path
       id="path830"
       d="m -121.51931,202.96343 v 13.86892 c 0,7.32897 5.90017,13.22917 13.22916,13.22917 h 60.854162 c 6.610072,0 12.056133,-4.80013 13.061216,-11.1187 -43.339761,0.1608 -54.359752,-16.03276 -87.144538,-15.97939 z"
       clip-path="none"
       style="opacity:1;vector-effect:none;fill:#63c923;fill-opacity:1;stroke:none;stroke-width:3.96875;stroke-linecap:butt;stroke-linejoin:miter;stroke-miterlimit:4;stroke-dasharray:none;stroke-dashoffset:0;stroke-opacity:1;paint-order:normal" />
    <path
       id="path832"
       d="m -34.20681,202.96343 c -32.784694,-0.0533 -43.804846,16.14019 -87.14455,15.97939 1.00509,6.31857 6.45115,11.1187 13.06122,11.1187 h 60.854164 c 7.328992,0 13.229166,-5.9002 13.229166,-13.22917 z"
       clip-path="none"
       style="opacity:1;vector-effect:none;fill:#59b81c;fill-opacity:1;stroke:none;stroke-width:3.96875;stroke-linecap:butt;stroke-linejoin:miter;stroke-miterlimit:4;stroke-dasharray:none;stroke-dashoffset:0;stroke-opacity:1;paint-order:normal" />
    <path
       style="opacity:1;vector-effect:none;fill:#ffffff;fill-opacity:1;stroke:none;stroke-width:0.79375005;stroke-linecap:butt;stroke-linejoin:miter;stroke-miterlimit:4;stroke-dasharray:none;stroke-dashoffset:0;stroke-opacity:1;paint-order:normal"
       d="m -84.351263,175.75725 c -1.30945,0 -2.376091,1.06665 -2.376091,2.37608 v 10.02885 0.001 c 0.06583,4.83083 4.01156,8.73477 8.857351,8.73486 4.8718,5e-5 8.846821,-3.94421 8.871295,-8.81134 v -0.001 -9.95288 c 0,-1.30943 -1.066113,-2.37557 -2.375589,-2.37557 -1.309396,0 -2.376064,1.06614 -2.376064,2.37557 v 9.8888 c 0,2.26045 -1.858169,4.10983 -4.119642,4.10983 -2.263616,0 -4.105699,-1.82766 -4.105699,-4.08968 v -9.90844 c 0,-1.30943 -1.066138,-2.37608 -2.375561,-2.37608 z m -20.887107,0.0925 c -1.30943,0 -2.37609,1.06717 -2.37609,2.3766 v 16.45119 c 0,1.30944 1.06666,2.37609 2.37609,2.37609 1.30945,0 2.37556,-1.06665 2.37556,-2.37609 v -5.97327 h 8.22534 v 5.97327 c 0,1.30944 1.066641,2.37609 2.376091,2.37609 1.309423,0 2.375561,-1.06665 2.375561,-2.37609 v -16.45119 c 0,-1.30943 -1.066138,-2.3766 -2.375561,-2.3766 -1.30945,0 -2.376091,1.06717 -2.376091,2.3766 v 5.72627 h -8.22534 v -5.72627 c 0,-1.30943 -1.06611,-2.3766 -2.37556,-2.3766 z m 41.77419,0 c -0.654712,0 -1.248675,0.26711 -1.678967,0.69764 -0.05368,0.0537 -0.105119,0.10983 -0.153458,0.16846 v 5.3e-4 c -0.04839,0.0586 -0.09427,0.11929 -0.136949,0.18242 v 5.3e-4 c -0.256381,0.37936 -0.406691,0.83617 -0.406691,1.32705 v 16.45119 c 0,0.1635 0.01693,0.3242 0.04858,0.47852 0.09512,0.46331 0.32594,0.87828 0.64852,1.20096 0.161369,0.16136 0.345308,0.29938 0.547264,0.40928 v 0 c 0.134567,0.0732 0.276781,0.13403 0.425318,0.18035 v 0 c 0.148537,0.0463 0.303186,0.0783 0.462518,0.0946 v 0 c 0.07959,0.008 0.160708,0.0124 0.242358,0.0124 h 8.33181 c 0.08747,0 0.167931,-0.0145 0.251142,-0.0238 l 0.09509,0.005 c 0.06019,0.003 0.119407,0.005 0.178779,0.006 h 0.0037 0.0048 c 3.578305,-2e-5 6.487954,-2.90916 6.487981,-6.48747 v -0.001 c -0.0026,-1.51334 -0.578009,-2.9475 -1.540484,-4.10673 0.962448,-1.15892 1.537785,-2.59314 1.540484,-4.10621 v -0.001 c -2.7e-5,-3.57831 -2.909676,-6.48744 -6.487981,-6.48746 h -0.533294 z m 8.865103,4.75062 c 0.96393,0 1.736831,0.77394 1.736831,1.73788 0,0.96394 -0.772901,1.73684 -1.736831,1.73684 v 0 h -0.532792 -5.955718 v -3.47317 h 5.956248 z m 0,8.21552 v 0 c 0.963507,5.3e-4 1.735799,0.77373 1.735799,1.73736 0,0.96394 -0.772901,1.73684 -1.736831,1.73684 h -0.0048 l -0.533294,0.0119 h -5.951591 v -3.4742 h 5.959846 z"
       id="path834" />
    <path
       id="path838"
       d="m -77.859375,138.66406 c -9.653316,0 -18.439915,3.93483 -24.767575,10.28125 a 3.9691471,3.9691471 0 1 0 5.621091,5.60352 c 4.899576,-4.9141 11.6422,-7.94727 19.146484,-7.94727 7.501101,0 14.241542,3.03098 19.140625,7.94141 a 3.9691471,3.9691471 0 1 0 5.619141,-5.60547 c -6.327038,-6.34169 -15.110547,-10.27344 -24.759766,-10.27344 z"
       style="color:#000000;font-style:normal;font-variant:normal;font-weight:normal;font-stretch:normal;font-size:medium;line-height:normal;font-family:sans-serif;font-variant-ligatures:normal;font-variant-position:normal;font-variant-caps:normal;font-variant-numeric:normal;font-variant-alternates:normal;font-feature-settings:normal;text-indent:0;text-align:start;text-decoration:none;text-decoration-line:none;text-decoration-style:solid;text-decoration-color:#000000;letter-spacing:normal;word-spacing:normal;text-transform:none;writing-mode:lr-tb;direction:ltr;text-orientation:mixed;dominant-baseline:auto;baseline-shift:baseline;text-anchor:start;white-space:normal;shape-padding:0;clip-rule:nonzero;display:inline;overflow:visible;visibility:visible;opacity:1;isolation:auto;mix-blend-mode:normal;color-interpolation:sRGB;color-interpolation-filters:linearRGB;solid-color:#000000;solid-opacity:1;vector-effect:none;fill:#63c923;fill-opacity:1;fill-rule:nonzero;stroke:none;stroke-width:7.93750048;stroke-linecap:round;stroke-linejoin:miter;stroke-miterlimit:4;stroke-dasharray:none;stroke-dashoffset:0;stroke-opacity:1;color-rendering:auto;image-rendering:auto;shape-rendering:auto;text-rendering:auto;enable-background:accumulate" />
  </g>
</svg>
