<?xml version="1.0"?>
<svg xmlns="http://www.w3.org/2000/svg" height="512px" viewBox="0 0 58 58" width="512px" class=""><g><g id="010---Vegan-Symbol" fill="none"><circle id="Oval" cx="29" cy="29" fill="#24ae5f" r="29" data-original="#24AE5F" class=""/><path id="Shape" d="m29 0v58c-16.0162576-.0000002-28.99999957-12.9837424-28.99999957-29s12.98374197-28.99999976 28.99999957-29z" fill="#4fba6f" data-original="#4FBA6F" class="active-path" style="fill:#00AE67" data-old_color="#4fba6f"/><g fill="#fff"><path id="Shape" d="m28.33 32c-3.1028652-7.2982729-8.396957-13.4519994-15.15-17.61-.8398552-.5457883-1.9494246-.415498-2.64.31-.3827018.4386693-.55528102 1.0223136-.4726845 1.5985681.0825964.5762545.4121705 1.0879235.9026845 1.4014319 10.2 6.44 16 16.58 16 27.83v3.37c-.0297163 1.0306859.7036585 1.9260853 1.72 2.1.5817081.0913119 1.1740957-.0783567 1.6192597-.4637801s.6978634-.9474318.6907403-1.5362199v-3.45c0-6.62 2.54-13.17 7.56-19.48.3686916-.4597993.5158127-1.0588072.4020832-1.637093s-.4767301-1.0769698-.9920832-1.362907c-.8924698-.4640862-1.9893826-.2193903-2.6.58-2.0561213 2.5727624-3.807761 5.3747148-5.22 8.35-.1624531.356559-.5181769.5853918-.91.5853918s-.7475469-.2288328-.91-.5853918" data-original="#FFF" class=""/><path id="Shape" d="m33.61 26.06c-2.16-2.35-2.13-6.3.16-9.11 2.41-2.95 11.14-3.95 11.14-3.95s2.84 6.69-.6 10.91c0 0-2.56 3.44-8.93 3.06z" data-original="#FFF" class=""/></g></g></g> </svg>
