<?xml version="1.0" encoding="iso-8859-1"?>
<!-- Generator: Adobe Illustrator 19.0.0, SVG Export Plug-In . SVG Version: 6.00 Build 0)  -->
<svg version="1.1" id="Capa_1" xmlns="http://www.w3.org/2000/svg" xmlns:xlink="http://www.w3.org/1999/xlink" x="0px" y="0px"
	 viewBox="0 0 345.172 345.172" style="enable-background:new 0 0 345.172 345.172;" xml:space="preserve">
<path style="fill:#77BC4A;" d="M265.477,68.523c-59.6-41.2-153.2-64.4-252-57.6c59.6,50.8,59.2,138,92,205.6
	c48.4,94.4,140,84,190,34.8c31.6-31.2,46.8-77.6,24.4-123.6C309.477,106.123,290.277,85.723,265.477,68.523z"/>
<path style="fill:#023600;" d="M341.077,331.723c-9.2-27.6-20.4-53.6-33.6-78.4c0.4-0.4,0.8-1.2,1.6-1.6c30-33.6,42.8-81.2,20-128
	c-11.6-23.6-31.6-44.8-57.6-62.8c-0.4-0.4-0.8-0.4-1.2-0.8c-18.4-12.4-39.2-23.2-62.8-32.4c-55.6-21.2-124-31.6-194.8-26.4
	c-5.6,0.4-9.6,5.2-9.2,10.4c0.4,2.8,1.6,5.2,3.6,7.2c35.6,30.8,48.8,77.2,62,123.2c8,27.2,15.6,54.4,27.6,79.2
	c0,0.4,0.4,0.4,0.4,0.8c30,58,76,78.8,119.6,76c17.6-1.2,35.2-6,50.8-14c8.8-4.4,17.6-10,25.2-16.4c11.6,22.4,21.2,46,29.6,70.8
	c1.6,5.2,7.2,8,12.4,6C340.277,342.523,343.077,336.923,341.077,331.723z M311.477,132.523c18,36.8,8.8,74.8-14,102.4
	c-5.2-8.8-10.4-17.2-16-25.6l-5.2-120.4C291.877,102.523,303.877,116.923,311.477,132.523z M200.677,46.123
	c20.4,8,39.2,17.2,55.2,27.6l4.8,107.2c-15.2-18.8-32-36.4-50.4-52.8l-0.4-0.4c-22-19.2-46.4-36.8-73.6-52
	c-4.8-2.8-10.8-0.8-13.2,3.6c-2.8,4.8-0.8,10.8,3.6,13.2c17.2,9.6,33.2,20.4,48.4,32l-90.8-3.6c-10.8-36.8-22.8-72.4-47.6-101.2
	C96.277,18.523,153.477,28.123,200.677,46.123z M258.677,266.523c-13.6,6.8-28,11.2-43.2,12c-36.8,2.4-75.2-15.6-100.8-65.6v-0.4
	c-10.8-22-18-46.8-25.2-71.6l110.4,4.4c18,16,34,33.2,48.4,51.6c12.8,16.4,24.4,34,35.2,52.8
	C275.877,256.123,267.477,261.723,258.677,266.523z"/>
<g>
</g>
<g>
</g>
<g>
</g>
<g>
</g>
<g>
</g>
<g>
</g>
<g>
</g>
<g>
</g>
<g>
</g>
<g>
</g>
<g>
</g>
<g>
</g>
<g>
</g>
<g>
</g>
<g>
</g>
</svg>
