<svg xmlns="http://www.w3.org/2000/svg" xmlns:xlink="http://www.w3.org/1999/xlink" version="1.1" id="Layer_1" x="0px" y="0px" width="100px" height="100px" viewBox="0 0 100 100" enable-background="new 0 0 100 100" xml:space="preserve">
<rect fill="none" width="100" height="100"/>
<path d="M73.617,42.921H53.671c-0.788,0-1.423,0.636-1.423,1.423v7.238c0,0.788,0.635,1.424,1.423,1.424h19.946  c0.788,0,1.429-0.636,1.429-1.424v-7.238C75.046,43.557,74.405,42.921,73.617,42.921z M72.194,50.16H55.099v-4.392h17.096V50.16z   M58.494,57.78c0,0.788-0.635,1.423-1.423,1.423h-3.4c-0.788,0-1.423-0.635-1.423-1.423s0.635-1.429,1.423-1.429h3.4  C57.859,56.352,58.494,56.992,58.494,57.78z M66.771,57.78c0,0.788-0.636,1.423-1.424,1.423h-3.4c-0.788,0-1.429-0.635-1.429-1.423  s0.641-1.429,1.429-1.429h3.4C66.135,56.352,66.771,56.992,66.771,57.78z M75.046,57.78c0,0.788-0.641,1.423-1.429,1.423h-3.396  c-0.788,0-1.423-0.635-1.423-1.423s0.635-1.429,1.423-1.429h3.396C74.405,56.352,75.046,56.992,75.046,57.78z M58.494,64.058  c0,0.788-0.635,1.429-1.423,1.429h-3.4c-0.788,0-1.423-0.641-1.423-1.429s0.635-1.423,1.423-1.423h3.4  C57.859,62.635,58.494,63.27,58.494,64.058z M66.771,64.058c0,0.788-0.636,1.429-1.424,1.429h-3.4c-0.788,0-1.429-0.641-1.429-1.429  s0.641-1.423,1.429-1.423h3.4C66.135,62.635,66.771,63.27,66.771,64.058z M75.046,64.058c0,0.788-0.641,1.429-1.429,1.429h-3.396  c-0.788,0-1.423-0.641-1.423-1.429s0.635-1.423,1.423-1.423h3.396C74.405,62.635,75.046,63.27,75.046,64.058z M87.271,72.227  c-0.239-13.364-2.135-26.347-5.562-37.713c-0.366-1.2-1.474-2.028-2.729-2.028H66.496V22.334h11.636c1.57,0,2.847-1.276,2.847-2.852  V7.847C80.979,6.276,79.702,5,78.132,5H49.163c-1.576,0-2.852,1.276-2.852,2.847v11.636c0,1.576,1.276,2.852,2.852,2.852h11.634  v10.151H44.255c0.902-1.006,1.896-1.789,2.977-2.257c0.623-0.264,0.971-0.93,0.833-1.591c-0.137-0.666-0.722-1.139-1.398-1.139  H33.028c-0.193,0-0.386,0.041-0.564,0.117c-2.104,0.91-3.896,2.587-5.315,4.87h-6.133c-1.253,0-2.364,0.829-2.725,2.028  c-3.431,11.366-5.327,24.349-5.566,37.713c-1.515,0.066-2.732,1.297-2.732,2.826v17.096c0,1.575,1.276,2.852,2.849,2.852h74.312  c1.576,0,2.852-1.276,2.852-2.852V75.053C90.006,73.523,88.791,72.293,87.271,72.227z M52.012,10.698h23.268v5.938H52.012V10.698z   M33.338,30.351h8.998c-2.229,2.389-3.922,5.901-4.85,10.182c-1.281,5.922-0.854,11.94,0.976,15.819H29  c-2.336-3.151-3.134-10.07-1.807-16.201C28.248,35.276,30.482,31.723,33.338,30.351z M23.157,38.189h1.604  c-0.122,0.447-0.251,0.884-0.353,1.357c-1.332,6.161-0.732,12.663,1.332,16.805h-1.271c-0.788,0-1.426,0.641-1.426,1.429  s0.638,1.423,1.426,1.423h3.858H41.06h3.116c0.788,0,1.423-0.635,1.423-1.423s-0.636-1.429-1.423-1.429h-2.389  c-2.14-2.897-2.809-9.241-1.515-15.214c0.227-1.052,0.516-2.018,0.834-2.948H76.84c2.903,10.339,4.529,22.005,4.753,34.012H18.404  C18.627,60.194,20.257,48.528,23.157,38.189z M84.308,89.302H15.694V77.899h68.613V89.302z M45.45,83.598  c0-1.57,1.276-2.846,2.849-2.846h3.4c1.575,0,2.851,1.275,2.851,2.846c0,1.576-1.275,2.853-2.851,2.853h-3.4  C46.726,86.45,45.45,85.174,45.45,83.598z"/>
</svg>